/* XPM */
static char *_2e5d8d9eb64418f872ff6153a320ae4B3OfjShE9dM2CqY4[] = {
/* columns rows colors chars-per-pixel */
"32 32 230 2 ",
"   c #151E35",
".  c #2A1D24",
"X  c #1B2A36",
"o  c #0F2530",
"O  c #292C28",
"+  c #393426",
"@  c #262935",
"#  c #392D33",
"$  c #383636",
"%  c #362E2E",
"&  c #463B1E",
"*  c #523F1E",
"=  c #443D23",
"-  c #4F3C23",
";  c #443A2C",
":  c #4D3D2D",
">  c #453327",
",  c #513C25",
"<  c #533C2C",
"1  c #583B2D",
"2  c #4C3B34",
"3  c #433A39",
"4  c #4C3C38",
"5  c #463636",
"6  c #543C34",
"7  c #5A3E34",
"8  c #543E3A",
"9  c #5A3D3B",
"0  c #543635",
"q  c #603F3A",
"w  c #374233",
"e  c #5A481A",
"r  c #5C501E",
"t  c #735C1F",
"y  c #765813",
"u  c #695618",
"i  c #79641D",
"p  c #77651C",
"a  c #6F611A",
"s  c #4E4226",
"d  c #4E4922",
"f  c #4E442D",
"g  c #4B4629",
"h  c #544426",
"j  c #53432C",
"k  c #5B452D",
"l  c #5A4B2D",
"z  c #584A27",
"x  c #4E4334",
"c  c #4E433C",
"v  c #464837",
"b  c #544334",
"n  c #5A4435",
"m  c #544B34",
"M  c #5C4A34",
"N  c #54443B",
"B  c #5B453C",
"V  c #554A3B",
"C  c #5C4A3B",
"Z  c #59533B",
"A  c #565320",
"S  c #62492D",
"D  c #624A23",
"F  c #6B5524",
"G  c #685729",
"H  c #755C22",
"J  c #75522C",
"K  c #614534",
"L  c #614C3C",
"P  c #644737",
"I  c #6B5A33",
"U  c #675838",
"Y  c #725731",
"T  c #5B6530",
"R  c #6E632A",
"E  c #776428",
"W  c #736237",
"Q  c #616034",
"!  c #1F2645",
"~  c #242743",
"^  c #2A3447",
"/  c #373544",
"(  c #2D3453",
")  c #333750",
"_  c #3A3A65",
"`  c #583F42",
"'  c #423854",
"]  c #453141",
"[  c #3F4042",
"{  c #34425B",
"}  c #2C4542",
"|  c #384977",
" . c #4B444A",
".. c #554343",
"X. c #5B4442",
"o. c #5C4A42",
"O. c #584748",
"+. c #595447",
"@. c #4C4B54",
"#. c #624541",
"$. c #624C43",
"%. c #624B4B",
"&. c #684B45",
"*. c #645244",
"=. c #6A5649",
"-. c #71674C",
";. c #484B69",
":. c #4D536D",
">. c #4F607C",
",. c #5D666F",
"<. c #676B6C",
"1. c #825A12",
"2. c #8D6B1B",
"3. c #836618",
"4. c #89721B",
"5. c #93761C",
"6. c #9E6E1C",
"7. c #A66F17",
"8. c #A77817",
"9. c #B07C1E",
"0. c #815E24",
"q. c #8C6C29",
"w. c #856626",
"e. c #976C24",
"r. c #87742E",
"t. c #957526",
"y. c #856B34",
"u. c #916B37",
"i. c #887737",
"p. c #927738",
"a. c #A47C23",
"s. c #A77427",
"d. c #A8772D",
"f. c #897A46",
"g. c #977747",
"h. c #847558",
"j. c #807E67",
"k. c #A7851D",
"l. c #B98717",
"z. c #B49113",
"x. c #9F9035",
"c. c #928832",
"v. c #A88326",
"b. c #B58927",
"n. c #AD9526",
"m. c #B59031",
"M. c #B7A130",
"N. c #C4891C",
"B. c #CC931B",
"V. c #C79316",
"C. c #DC9E1B",
"Z. c #D69F16",
"A. c #D08E14",
"S. c #E99C12",
"D. c #E89E1D",
"F. c #DEA00F",
"G. c #D3A91A",
"H. c #F9BB0C",
"J. c #ECA41C",
"K. c #E8A81A",
"L. c #F3AC1C",
"P. c #F8AF15",
"I. c #E8B31C",
"U. c #FBB31E",
"Y. c #FCBD1D",
"T. c #F7B818",
"R. c #CA8B24",
"E. c #CB9523",
"W. c #C79729",
"Q. c #DC9D27",
"!. c #D6952A",
"~. c #D89E30",
"^. c #CB9231",
"/. c #EB9F25",
"(. c #E39C28",
"). c #E49F35",
"_. c #F69F2E",
"`. c #D8A724",
"'. c #DEA230",
"]. c #C8B133",
"[. c #E4A225",
"{. c #EDA923",
"}. c #ECA42A",
"|. c #E8A829",
" X c #F5A828",
".X c #E7B327",
"XX c #F5B326",
"oX c #FEB424",
"OX c #FDB924",
"+X c #FEB629",
"@X c #FFBB29",
"#X c #F3BA29",
"$X c #E7A734",
"%X c #FEBB33",
"&X c #FFBC3A",
"*X c #F8AE35",
"=X c #FFC00E",
"-X c #FBC31C",
";X c #FAC227",
":X c #FDC836",
">X c #EBD830",
",X c #94855C",
"<X c #A58D4A",
"1X c #AF944C",
"2X c #AEA051",
"3X c #CD9F4A",
"4X c #CEAF4E",
"5X c #ECB954",
"6X c #FFBF57",
"7X c #F1BB46",
"8X c #DFD051",
"9X c #FCC649",
"0X c #FAD84D",
"qX c #E1C553",
"wX c #FCC853",
"eX c #F1D05C",
"rX c #FFE151",
"tX c #E9E448",
"yX c #F9D76B",
"uX c #FEC963",
"iX c #FCE86B",
"pX c #FFE67A",
"aX c #6F6A80",
"sX c #7987A4",
"dX c #898FB8",
"fX c #A9ADBA",
"gX c #CABF92",
"hX c #FFF782",
"jX c #A1AAD2",
"kX c #C6D3F3",
/* pixels */
"N n K X...o.o.K B k 7 N ; = : < : < < 2 V =.n B n 6 m m X.N V b ",
"M j n < C =.m B n ; c m z Y i u u E K h m %.P N : 8 o.b 7 X.N B ",
"b N B - $.*.z B k 1 0.B.XX+X`.d.B.P.Y.`.p.G j c N 0 ` B 6 N ..B ",
": ..V 6 B *.B : S n.7XwX;XY.;XL.+XY.Y.9X6X'.e.g x < 0 7 b b X.N ",
"k N j n B =.%.Y 4X9X:XT.#X9X:XP.Y.H.L.;XOX9XwXq.: h K 6 B N n C ",
"0 N j n L m - m.:X{.XX+X9X:XH.).+X@XXX.X-XK.#X5XS + m b 8 N j B ",
"0 X.C 1 c +.G W.(.XX0X9X#XXX{./.^..X+X{.{. XJ.D.e.@. .b 2 N M B ",
"< s B k ) dXgXs.l.7X5X$X{.S.J.~.8.N.!.L.P. X~.4.3XfX:.< < c b ` ",
"` < B 7 V jXkX-.8.Z.7.^.I.E.N.Q.A.y.t l.!.W.b.E fXkXaX8 N N B O.",
"f x S #.@ >.jX,.r R v.V.R.s.e.E.v.y E i H 1.u x dXsX$ V N X.L L ",
"d N 8 b = $ ,.O.e e.e.2.2.^.S./.|.8.p p q.6.H z <.+.; ..b M B 8 ",
"< 7 O.m ; > H 8.t.A.}.}./.`.F.$XS.[.2.t ).`.8.E E t S v B C X.%.",
"B B C b > 0.`.W.Z.J./.C.`.$XOX XQ.$Xs.H A.K.Q.p p 1.t + 4 ` ` C ",
"2 C C B t b.m.8.`. XJ.|.!.P.H./.`.|.(.v.(.[.J.8.t E R e = B #.n ",
"f S N b 2.8.6.I.+X.XT.D._.OX@XJ.P.S.{.(.N.Q.XX{.a.y u t e s C #.",
"b N 8 r 5.!.%X;XoXI.^.!.T.Y.-X[.XX XZ.|.w.!.L.{.|.z.k.v.I > B V ",
"j f c J [.-X:X%X`.l.a..XOXXX;X*X#X$X}.oXV.5.m.D.oXH.#Xd.r & N O.",
"N B B > G 8.z.n.a.s..XwX[.oXwX:X9X$XC.K.;XR.s.l.b.t.y.j > N n P ",
"N b 6 o.3 % m F 2.I.%X$XR./.:XuXXXZ.^.(.U.XXW.G h + $ N 6 o.B M ",
"< m b - d v $ I E u.s.5.A i I.:X Xk.G q.v.t.F R w # 4 S 1 9 V V ",
"b n 7 6 o.O.. $ w R n.r.g U 1X`.V.E I 2XM.<Xm h O % : h N ..M n ",
"4 C b b < 3 @ } ) Z p.I 2 p.W.W m V L g.f.Q $ ) _ @ N n 6 V C L ",
"0 N b < n 5 @ ;.:.) o X X -.,X .{ { ) X ~ o X @ X O ; B < b B B ",
"& O.C j 5 I f.O._ / X ^ $ ;.| :.:.;.{ ' $ ^ w f r -.m 2 b 6 9 j ",
", n m : ] i.>X3X<Xr.v ~ ~  .-.,X<X2X2XW d @  .E n.i.C ` 4 j M M ",
"9 X.8 j ` n c.pXhXtXW U c.M.qXyXiXiXiXeX].e 5 Z I l b N b b L B ",
"< z B h m .. .h.<.,Xa q.].>XpXiX8XqX5XrXrXH $ g 4 5 b m 6 N B B ",
": 6 C b Z *.2 $ ; 5 l b < U -.T +.Z +.-.Q v ..k c x m M 6 X.b n ",
"b ..o.n &.=.m z B j C v %     o   ' ;.( @ O.O.6 z h M n b C b m ",
"z B M K $.&.X.e X.b m o.x x 4 & =.h.h.V o.=.n m 8 0 #.n < M b B ",
"6 8 M $.L U X.B q 1 K k 8 O.C b #.g.g.S o.=.n 8 B 8 X.B b b n B ",
"j ..C b *.=.8 b x x B C M M k #.1 P &.X.*.*.P b j < b C N C B n "
};
