/* XPM */
static char *_5e9cbe0300a490ae562aeac390536383m8KWgYbgjibPbMC[] = {
/* columns rows colors chars-per-pixel */
"32 32 233 2 ",
"   c #020409",
".  c #0A0615",
"X  c #161514",
"o  c #061100",
"O  c #251B19",
"+  c #331B19",
"@  c #363617",
"#  c #1B2737",
"$  c #292C28",
"%  c #362A27",
"&  c #383529",
"*  c #242D3D",
"=  c #2C3736",
"-  c #393737",
";  c #322E3F",
":  c #483919",
">  c #54351B",
",  c #413608",
"<  c #4A3B25",
"1  c #4D3C2C",
"2  c #473A2A",
"3  c #543C2D",
"4  c #583E2C",
"5  c #553C24",
"6  c #442C34",
"7  c #4C3D33",
"8  c #493737",
"9  c #533D34",
"0  c #5A3E35",
"q  c #543D3A",
"w  c #563A38",
"e  c #43292B",
"r  c #623F31",
"t  c #384332",
"y  c #5D481B",
"u  c #4F491C",
"i  c #6A5818",
"p  c #775B1D",
"a  c #6F4E14",
"s  c #77661B",
"d  c #756506",
"f  c #4E422C",
"g  c #4A4627",
"h  c #53432C",
"j  c #5A442B",
"k  c #584827",
"l  c #5F5425",
"z  c #5F532D",
"x  c #4D4234",
"c  c #4A4539",
"v  c #544434",
"b  c #5B4534",
"n  c #554B34",
"m  c #5B4B35",
"M  c #54433A",
"N  c #5B443B",
"B  c #554A3D",
"V  c #5C4A3C",
"C  c #5B5636",
"Z  c #624A2E",
"A  c #61472E",
"S  c #645323",
"D  c #6B572A",
"F  c #795B28",
"G  c #644632",
"H  c #654A35",
"J  c #614539",
"K  c #624B3D",
"L  c #6C4C34",
"P  c #685537",
"I  c #765B34",
"U  c #7B6426",
"Y  c #6A6138",
"T  c #776A38",
"R  c #766F2D",
"E  c #1C1F4A",
"W  c #1C2340",
"Q  c #242B48",
"!  c #2E3D4A",
"~  c #3A3648",
"^  c #373A56",
"/  c #2F2F51",
"(  c #103E72",
")  c #3E3E62",
"_  c #4B3945",
"`  c #563D44",
"'  c #462844",
"]  c #3B4145",
"[  c #374254",
"{  c #474848",
"}  c #564341",
"|  c #5C4543",
" . c #5D4A43",
".. c #554B46",
"X. c #5B5244",
"o. c #444C5B",
"O. c #624441",
"+. c #634B44",
"@. c #664749",
"#. c #675547",
"$. c #655455",
"%. c #614551",
"&. c #7C7559",
"*. c #766C49",
"=. c #49476A",
"-. c #495767",
";. c #485276",
":. c #68696D",
">. c #696B7C",
",. c #7B6363",
"<. c #815913",
"1. c #876A17",
"2. c #956B1F",
"3. c #897217",
"4. c #967518",
"5. c #936C0D",
"6. c #A56D17",
"7. c #A8791B",
"8. c #9A5B37",
"9. c #835C2B",
"0. c #896B28",
"q. c #977727",
"w. c #866738",
"e. c #936E2E",
"r. c #A67829",
"t. c #AB6F2B",
"y. c #8A5A44",
"u. c #A95B45",
"i. c #997A48",
"p. c #926C4E",
"a. c #AC774D",
"s. c #AD7456",
"d. c #847766",
"f. c #8D7F74",
"g. c #B77662",
"h. c #9A831C",
"j. c #AC851B",
"k. c #B7841C",
"l. c #9A8124",
"z. c #8D8238",
"x. c #B88727",
"c. c #AA932E",
"v. c #B99428",
"b. c #BA9739",
"n. c #AA842D",
"m. c #B9A43C",
"M. c #B4A629",
"N. c #C99619",
"B. c #D3921C",
"V. c #E7991C",
"C. c #EBA81B",
"Z. c #F3A719",
"A. c #ECB418",
"S. c #FBB51C",
"D. c #FCBD1B",
"F. c #F8B21B",
"G. c #CD9425",
"H. c #CE932D",
"J. c #DD9D26",
"K. c #C18B21",
"L. c #E39D26",
"P. c #C6A425",
"I. c #D9A726",
"U. c #CAAF35",
"Y. c #D7B036",
"T. c #EBA627",
"R. c #F8AC25",
"E. c #E9B524",
"W. c #FEB322",
"Q. c #FDBB23",
"!. c #FFBC29",
"~. c #F6B526",
"^. c #E6B13D",
"/. c #FEBA3A",
"(. c #F5AE30",
"). c #FCC117",
"_. c #FBC228",
"`. c #FAC435",
"'. c #9B9541",
"]. c #978651",
"[. c #A58944",
"{. c #A69551",
"}. c #BB995A",
"|. c #AE964E",
" X c #9CA042",
".X c #B4AC54",
"XX c #9B957D",
"oX c #BAA168",
"OX c #C69D43",
"+X c #DBB553",
"@X c #D2B551",
"#X c #FFBC44",
"$X c #D18A74",
"%X c #E69965",
"&X c #D6BF78",
"*X c #EDA56A",
"=X c #FEBD7B",
"-X c #D4C250",
";X c #FCC746",
":X c #FEC755",
">X c #FDD454",
",X c #FBE459",
"<X c #EBE15B",
"1X c #FAD661",
"2X c #F6C56D",
"3X c #FAE86B",
"4X c #FFE477",
"5X c #FBF274",
"6X c #16448F",
"7X c #596386",
"8X c #67788D",
"9X c #797787",
"0X c #7FA6C7",
"qX c #929094",
"wX c #8B90B6",
"eX c #A492A0",
"rX c #98A1AA",
"tX c #B0AEAD",
"yX c #EEB886",
"uX c #CAB7AE",
"iX c #F9C797",
"pX c #F4CA93",
"aX c #F9F98B",
"sX c #FED3AC",
"dX c #FAD9A6",
"fX c #F3D2AF",
"gX c #FFE4AE",
"hX c #FFE4BA",
"jX c #858ADB",
"kX c #A3B4C6",
"lX c #BFC7CA",
"zX c #B1C1E2",
"xX c #D3E3F3",
/* pixels */
"h N b f V X.| N M 5 G N 2 7 e < 7 < 2 v V #.n M b v } M b N ` B ",
"} 9 V v m #.N h c q 9 h 1 k 0.F p d D j k @.+.N M q M  .v N | M ",
"q 9  .q K K V N 0 5 i 4.E.).A.x.r.E.F.(.x.I 3 5 f f v b 9 7 N N ",
"9 m x v J +.N v 5 4.+X:X/.~.!.A.C.!.D.D.W.A.q.z 1 9 v 3 M V v N ",
"9 k v q b #.+.k n.:X`.`._.S.Q._.D.D._.D.Q.S.~.k.r 8 @.N q } x O.",
"9 n v 0 K X.< U D.R.R./.>X>X;XW.D.W.R.Q.D.A.T.C.0.: 7 j w 7 n @.",
"9 v } w M { +.q.C.T.#X>X:X#XD.D.E.J.(.T.T.`.7.h.4.m - g 9 M n q ",
"1 f B N 7 >.uXb.2.Y.>X:X;X~.~.`.#XJ.A.C.V.S.N.9.p 9X7X_ w 9 M M ",
"v 9 M M 3 8XxXrXj.`.;X_.^.C.`.2X;XR.G.T.R.R.A.7.9XkX8X- v } %.H ",
"5 1 +.b t _ jXeXC.`.^.I.B.q.`.>X`.F.q.j.(.G.T.6.tXzX^ w V c +.M ",
"` B b ` < h ,.d.Z.W.P.2.2.S L.D./.V.p 1.5.r.W.4.&.>.3 0 m M M K ",
"h M G M i l.v.4.B._.7.@ y @ w.C.R.q.& y @ p L.0.g S q.S 1 O...b ",
"v f J v e.I.5.J.S I.v.$ X X 2 U 3.g O . $ e.k.< y i v.1.2  .N N ",
"M j +.j k.N.r.t.D i |.:.  + 8.F w.8.>   [ }.4.g F u 0.x.5 q N  .",
"g O.x 5.I.d H.q.G.: &.qX. B *X%X*X*XI . :.XX: 2.0.g 5 K.1.7 #.N ",
"9 N n r.r.0.r.S j.6.&.tX6X9XpXiXiXyXeX( wXXXp c.y i P 1.j.P N N ",
"` v A R > j.l & 5 F i.uXwXuXhXsXfXhXuXwXlX{.1.L $ k s > w.D h ..",
"h h w 1 M : O % o   r =XdXdXdXdXfXsXgXgXyXp.% 2 8 & Z J 3 M } H ",
"0 m b 9 B & $ i i p y 8.$X&XiXfXsXpXyX$Xu.9.s w.i v h v < X.V b ",
"v v q v f n { C c.@X2X[.e.8.8.g.s.u.8.q.i.@X,XY.D 9 k N 0 x n H ",
"h x N 7  .j $ = B D +X>X-X}.a.S A a.}..X4X4X XP & ; f b N M N N ",
"q v b : M G Q o.=.o.n z.<X5XaX.X{.4X5X<X|.Y t ] -.! 8 { h v N  .",
"3 v N M h | / ^ ;.) Q [ T p.{.m.c.-X{.].n # Q =.^ $.Y 8 8 O.4 z ",
"3 v m ` g 6 { z. X{.D ! ^ W Y +X@Xq.^ ;.=.- = *.'.U.U.C & j 0 _ ",
"3 0 v v 7 8 U -X5X,Xm.~ * E D ,X5Xv...^ = Q ~ C P..X0.j 9 q  .h ",
"9 N b 7 M Z D w.p.].'.C q.{.&X3X<X3X&X.XR C B - L D 4 b M v m V ",
"q M b 9 m l g e > J *.R U.c.'.T T d.oX,XP.i C c w 7 9 n b v N N ",
"9 v V V K O.9 7 0 e % P V % = W Q Q & Y T l f v j v m n h b N v ",
"h M V b O.$. .h v 9 b n c - Q - ] -.{ # = m N b N 9 N N q N b b ",
"M M N V V #.m 1 v w  .v h m 7 e - ' 8 % 2 #.+.3 N w N N v N N M ",
"M v V V #.P V N M N M N O.` m K L +.K ` %.#.4 } v b b m v b N M ",
"v b m M @.#.N 4 n 5 A | b k B K G V V L K #.B h v 9 M N M v V m "
};
