/* XPM */
static char *a95814e3a05449f5851687e1c87429a4Rhkl16o9IhkpteOa[] = {
/* columns rows colors chars-per-pixel */
"32 32 230 2 ",
"   c #1D1D13",
".  c #271803",
"X  c #1E351B",
"o  c #39361B",
"O  c #2C2A18",
"+  c #181F2F",
"@  c #18292C",
"#  c #1A2832",
"$  c #0C2730",
"%  c #292727",
"&  c #382A26",
"*  c #2B3429",
"=  c #3D3A21",
"-  c #3A362D",
";  c #2A2433",
":  c #282B3A",
">  c #362A39",
",  c #243538",
"<  c #3A3539",
"1  c #4A2F11",
"2  c #473A19",
"3  c #523D1C",
"4  c #643D12",
"5  c #462A25",
"6  c #443B22",
"7  c #4C3C26",
"8  c #46342C",
"9  c #443B2B",
"0  c #4C3C2C",
"q  c #4B3629",
"w  c #523D2D",
"e  c #593D2E",
"r  c #563927",
"t  c #442C36",
"y  c #413E30",
"u  c #4D3C32",
"i  c #4B3936",
"p  c #533E32",
"a  c #5A3E34",
"s  c #543D3A",
"d  c #593C39",
"f  c #613E37",
"g  c #3F412C",
"h  c #374A34",
"j  c #4E440F",
"k  c #5A4719",
"l  c #4A4317",
"z  c #674A19",
"x  c #69551C",
"c  c #7B5B1C",
"v  c #765A18",
"b  c #7B4E13",
"n  c #6E641F",
"m  c #79641C",
"M  c #4C4524",
"N  c #4C422B",
"B  c #48462A",
"V  c #524323",
"C  c #54432B",
"Z  c #5A452D",
"A  c #544A2D",
"S  c #5A4926",
"D  c #595426",
"F  c #4D4334",
"G  c #4D433E",
"H  c #494737",
"J  c #554234",
"K  c #594536",
"L  c #544932",
"P  c #5B4B35",
"I  c #55433A",
"U  c #5A453A",
"Y  c #564C3B",
"T  c #5B493B",
"R  c #5C5438",
"E  c #644B2A",
"W  c #614825",
"Q  c #675425",
"!  c #745425",
"~  c #795B25",
"^  c #614535",
"/  c #644B3B",
"(  c #634838",
")  c #695639",
"_  c #7A5C38",
"`  c #79422E",
"'  c #79642B",
"]  c #756635",
"[  c #052848",
"{  c #292E44",
"}  c #293644",
"|  c #353349",
" . c #393944",
".. c #2A3050",
"X. c #3F3D52",
"o. c #303862",
"O. c #453843",
"+. c #573F41",
"@. c #493D58",
"#. c #3E4249",
"$. c #3D4354",
"%. c #395362",
"&. c #4E424A",
"*. c #454249",
"=. c #554342",
"-. c #594643",
";. c #5B4A42",
":. c #564943",
">. c #595244",
",. c #494956",
"<. c #565057",
"1. c #634B43",
"2. c #654847",
"3. c #635342",
"4. c #67504A",
"5. c #6B5547",
"6. c #725449",
"7. c #756647",
"8. c #484962",
"9. c #585667",
"0. c #4A4F6F",
"q. c #47616E",
"w. c #61677F",
"e. c #86651C",
"r. c #97771A",
"t. c #93681A",
"y. c #A6781C",
"u. c #895638",
"i. c #854F2E",
"p. c #846822",
"a. c #926B27",
"s. c #977625",
"d. c #897439",
"f. c #9E743A",
"g. c #A57A28",
"h. c #A5683D",
"j. c #BE7E27",
"k. c #8C5D4E",
"l. c #8C7547",
"z. c #8D6F53",
"x. c #A86643",
"c. c #947666",
"v. c #807468",
"b. c #AA8317",
"n. c #B98818",
"m. c #B79017",
"M. c #9A893A",
"N. c #95912D",
"B. c #AD842B",
"V. c #BD8C21",
"C. c #B58428",
"Z. c #A78E35",
"A. c #BEA83A",
"S. c #C8961D",
"D. c #D3971A",
"F. c #C9891B",
"G. c #ECA71B",
"H. c #F9AA1B",
"J. c #FEBB1E",
"K. c #FDB617",
"L. c #EEB71F",
"P. c #C78C25",
"I. c #C79425",
"U. c #D29528",
"Y. c #D79835",
"T. c #C89031",
"R. c #D3A021",
"E. c #CAA735",
"W. c #D1AD29",
"Q. c #EDA928",
"!. c #F2AC22",
"~. c #F9AB25",
"^. c #F5B424",
"/. c #FEBD23",
"(. c #F3B02C",
"). c #F8B827",
"_. c #F8B736",
"`. c #ECAF2E",
"'. c #F9C219",
"]. c #DBC82E",
"[. c #FBC224",
"{. c #F5C82D",
"}. c #FCC439",
"|. c #9E8C47",
" X c #918E58",
".X c #B19E51",
"XX c #AA8841",
"oX c #BEA845",
"OX c #A58E6C",
"+X c #C79E4E",
"@X c #D8BF49",
"#X c #CCBB51",
"$X c #C5AD4C",
"%X c #F5BD48",
"&X c #F6B77A",
"*X c #EAAF6F",
"=X c #DCC75C",
"-X c #FFC44E",
";X c #FAC943",
":X c #FCC953",
">X c #E9D14D",
",X c #F7EE5F",
"<X c #DEC679",
"1X c #D4C862",
"2X c #FBD666",
"3X c #E7D77A",
"4X c #FADD73",
"5X c #EDD364",
"6X c #FFED6F",
"7X c #FEE677",
"8X c #EFE975",
"9X c #384D8E",
"0X c #5B839C",
"qX c #788691",
"wX c #7E8AB0",
"eX c #AB9990",
"rX c #9794B3",
"tX c #F9BF80",
"yX c #EDB98F",
"uX c #F1D48B",
"iX c #FCE888",
"pX c #D2C0B4",
"aX c #FFD3A4",
"sX c #FADAA9",
"dX c #E2D2B0",
"fX c #FEDAB4",
"gX c #FFE1BA",
"hX c #939FC5",
"jX c #9BABD6",
"kX c #CAC7DC",
/* pixels */
"A K U a ( 3.T J 7 & w 2 2 z b ! z 1   % N 4.1.F K J T K J U =.U ",
"+.C K F ;.>.7 1 r e.b.y.s.U.~.!.^.D.s.W o T K d J p U J J U U =.",
"I -.e A >.0 z B.Y.;X_.L.L.)./.'.K.[.).D.Q - ( f p u J U J d U U ",
"0 U K J 9 x I.-X}.;X(.^.[.'.J./.'.(.`.G.T.S = K I p p U J I U =.",
"7 J I 0 x U.}._.}.).J.J.H.H./.!.H.J.F.D.H.a.* F I p U p p U U U ",
"N J +.q r._._.).;XJ.)._._.!.^.^.~.[.b.r.XX7.w.o.p p I p p I U -.",
"i Z U i x P._.%X-X[.S.$X:XG.G.[.Q.V._ 9.jXjXwX0.i u I p u U U d ",
"q 1.U B 0 e.`.2X}.J.n.B.[.D.Y.K.Q.U.*.0XkXrX%.< 9 u I p w a U U ",
"w i S K s c _.-X>XG.p.m.).a.g.).!.`.' <.q.$.M = 8 r J p a U T T ",
"Z s s K -.E C.'./.g.j P.W.D a.K.P.F.D.S o W m ! = N I &.I K 2.-.",
"e I -.L C 8 ! S.P.3 = k k B g.~.m g.H.p.b.r.j ~ w t Y S s T U K ",
"e C Y Z S H u i.( 5 U <.7.E C.U.j f.!.i.B.B.B D r.W C ( +.-.T T ",
"p K T J e L ) x.h.u.% <.c.4 n.b.E j.m.k _ n.v w s.B.W O.-.^ T I ",
"I ;.T K d p z.&X&X X[ qXOXa.C.x p.~.m o D D.D.e.7 Q 2 i 7 U 4.-.",
"p J K ^ ;.p c.aXaXeX9XjXeXt.! 2 V.n.V L x ~ Y.R.n 2 y s T T J 2.",
"L Z 1.+.L B c.fXfXsXpXdXyXv * s.n.P M x c h k t.D 5 T I I ^ 1.L ",
"I -.P u J e k.<XfXfXfXfXaXl.l n F 2 l 9 ~ m = & 0 0 T U J K T K ",
"Z p ^ p T J a u.*XyXfXuX*Xx.r B %   * g O   B s C J U K J K T T ",
"7 T a d Z L T 3 . U k.u.6.f g.&X<XE.E.A.A > K 0 J p L U J K T T ",
"=.U F i Y P S p..X<X;XW.*X4X8X6X2X@XN.S : & C k J 0 I J J K K T ",
"J V K H I ;.8 7 M.,X7X7XiX5X].7.G - #.} : ; *.p p 0 J U J K T U ",
"s I U e w L Y ; : l.>X|.*.,.&. .$ { ,.0. .< : B J w K J J K T T ",
"3 Z ( w T F M #...z.,X X..8.o.} : { $.0.H N.R < J w J J p J K K ",
"p I =.F 9 Q =X|.} f.6X XX.0.,...< @ #.|.=X2XoXY p 0 K J 0 J L J ",
"p p U s q d.$XW.=X7XiX1Xl.,.#.h H  .N.4X8X>X7.$.p 0 J U p K U U ",
"d J J p :.T L ] E.>XiX7X7XuX5XE.d.:.l.oX) r r I J w L U J K K U ",
"i T ( V T ;.i i / r.oX1X3X3X#X' #.X % & t t e M J p K U p U T L ",
"J p P K K 3.P B I & : @.| } , ; @ $ , { ; H J J J p K L J L K U ",
"J K I ( 4.1.U J S - | 8.,.{ % - 2 ; > > ; >./ J J J K K J K U K ",
"0 ;.T T 4.4.2.p I 5 8  .| & p T d q & & p 5.T C J J K U J J U K ",
"I I T T R ) K a K 5 -.6.^ 6 G :.K 0 8 B ) 4.1.d L p U K L K U L ",
"e K ;.I ;.5.I J K K Z K p U / Z Z -./ d 2.5.L I L p K U J U U U "
};
