/* XPM */
static char *_f69686644134cdb9a7c6276511c9c4bL2vOFbO6rkIFdpMo[] = {
/* columns rows colors chars-per-pixel */
"32 32 234 2 ",
"   c #0C1016",
".  c #23140D",
"X  c #3B3317",
"o  c #3F2C1D",
"O  c #1D1B2B",
"+  c #1D1D25",
"@  c #2B1F37",
"#  c #182927",
"$  c #1B2837",
"%  c #2B2D29",
"&  c #382B28",
"*  c #2C352B",
"=  c #2C382E",
"-  c #383425",
";  c #272936",
":  c #372C3A",
">  c #3A3336",
",  c #20383A",
"<  c #483E1B",
"1  c #533E18",
"2  c #4A2314",
"3  c #653E15",
"4  c #443423",
"5  c #433A25",
"6  c #43332B",
"7  c #4D3C2C",
"8  c #4B3927",
"9  c #533C2E",
"0  c #563B2A",
"q  c #4D3D33",
"w  c #4B3D3A",
"e  c #493738",
"r  c #523E32",
"t  c #5A3E34",
"y  c #553D3A",
"u  c #5B3E3A",
"i  c #4E2E3B",
"p  c #633C3D",
"a  c #3F4030",
"s  c #2F423C",
"d  c #56410F",
"f  c #48431E",
"g  c #59491A",
"h  c #68491B",
"j  c #675718",
"k  c #795E16",
"l  c #7B5615",
"z  c #77691B",
"x  c #444229",
"c  c #4B4628",
"v  c #524325",
"b  c #54422C",
"n  c #5B432C",
"m  c #56482C",
"M  c #5A4A2D",
"N  c #5C4626",
"B  c #585129",
"V  c #4E4234",
"C  c #4D443B",
"Z  c #4A4939",
"A  c #554234",
"S  c #5A4435",
"D  c #554933",
"F  c #5C4A34",
"G  c #55433A",
"H  c #5A453B",
"J  c #56493C",
"K  c #5B493B",
"L  c #5A523B",
"P  c #695A21",
"I  c #6B532A",
"U  c #6B5827",
"Y  c #785D26",
"T  c #614B3D",
"R  c #634938",
"E  c #685A36",
"W  c #7C5939",
"Q  c #6F4A2B",
"!  c #52603D",
"~  c #756429",
"^  c #7C6226",
"/  c #706735",
"(  c #1D2345",
")  c #232B48",
"_  c #302D40",
"`  c #29314B",
"'  c #363547",
"]  c #2D355B",
"[  c #33355B",
"{  c #4D3B40",
"}  c #423649",
"|  c #533E4E",
" . c #3E4549",
".. c #3A4659",
"X. c #3D4866",
"o. c #4B4444",
"O. c #534342",
"+. c #5B4543",
"@. c #564941",
"#. c #5D4A42",
"$. c #594248",
"%. c #414756",
"&. c #495642",
"*. c #654E42",
"=. c #634847",
"-. c #655144",
";. c #695344",
":. c #665948",
">. c #735648",
",. c #6F5D51",
"<. c #756649",
"1. c #6A685A",
"2. c #7F7F5B",
"3. c #484E6A",
"4. c #4F5062",
"5. c #474878",
"6. c #58627C",
"7. c #75726D",
"8. c #823C3C",
"9. c #825A14",
"0. c #8B6B1A",
"q. c #936B1B",
"w. c #88731A",
"e. c #9B7619",
"r. c #936B0E",
"t. c #A67A1E",
"y. c #A07A0B",
"u. c #865A26",
"i. c #876926",
"p. c #946C28",
"a. c #9A7624",
"s. c #846A38",
"d. c #96793A",
"f. c #8D7930",
"g. c #A67D25",
"h. c #A9742E",
"j. c #8C5E4F",
"k. c #877548",
"l. c #946F52",
"z. c #B27A52",
"x. c #A37661",
"c. c #BD871D",
"v. c #A98017",
"b. c #908430",
"n. c #B48223",
"m. c #B98927",
"M. c #BA9425",
"N. c #A78B38",
"B. c #AF9F3F",
"V. c #B8A232",
"C. c #C88A1D",
"Z. c #CB9A1F",
"A. c #D59A16",
"S. c #E29B18",
"D. c #DCA41C",
"F. c #E8A41C",
"G. c #FCBB15",
"H. c #FEBB1B",
"J. c #F9B719",
"K. c #EBB016",
"L. c #C99728",
"P. c #D49126",
"I. c #C99534",
"U. c #E79B2C",
"Y. c #F59A2F",
"T. c #C7AB3B",
"R. c #DCA030",
"E. c #D0A226",
"W. c #EDAB2C",
"Q. c #E7A628",
"!. c #FAAB25",
"~. c #EDB42A",
"^. c #FDBC23",
"/. c #FBB629",
"(. c #E7B133",
"). c #FEBC37",
"_. c #ECAD35",
"`. c #F5C21B",
"'. c #EFC20D",
"]. c #FFC627",
"[. c #FFC135",
"{. c #FBC53B",
"}. c #EBD22F",
"|. c #8E8853",
" X c #A99B48",
".X c #A88555",
"XX c #AC9456",
"oX c #AF924F",
"OX c #B0A951",
"+X c #9F9F69",
"@X c #B48974",
"#X c #B29B79",
"$X c #BEB069",
"%X c #EB975B",
"&X c #FDBC45",
"*X c #EAB243",
"=X c #C19361",
"-X c #F09D69",
";X c #FFBF61",
":X c #E7B47F",
">X c #EDCB5A",
",X c #FCCD58",
"<X c #ECD958",
"1X c #F7D758",
"2X c #E9D64C",
"3X c #DBC46A",
"4X c #E9DB66",
"5X c #FFCD66",
"6X c #FCF36C",
"7X c #FFEB76",
"8X c #FDF27B",
"9X c #FDEB65",
"0X c #275090",
"qX c #717D91",
"wX c #7487A7",
"eX c #BD9B80",
"rX c #948EAC",
"tX c #878ABF",
"yX c #F2B984",
"uX c #C2ACA1",
"iX c #FECD93",
"pX c #FEFD83",
"aX c #FFF988",
"sX c #FFF493",
"dX c #CEC6BB",
"fX c #FFDFA3",
"gX c #FFD5A8",
"hX c #FBD8B8",
"jX c #FBCAAC",
"kX c #F9E3B3",
"lX c #FFE2A2",
"zX c #9A9DC8",
"xX c #A6AACD",
"cX c #C9D0EC",
/* pixels */
"G G H D K -.H H J q R n 5 y n S t b x 9 S T F O.u $.K m S +.u H ",
"H S A A K -.S S D r | 8 f 0.C.L.P.n.u.u.k I F u D r S D V J 9 K ",
"A A H r K ;.K S N a v r.(.`.H.^.^.G.S.Q.~.(.M.0.j 4 G +.q J D R ",
"9 A H A T ;.S A p 5 i.U.!.G.G.H./.`.`.K._.;X{.!.m.h w O.t G O.+.",
"9 A J r K ;.S V e h E.D.P.W.).J.].G.H.H.J.^.].,X{.m.I A y y H $.",
"9 G H r S ;.K o.3./ M.M.q.G.!.W.J.!.W.).H.).{.J.).[.t.v V S S J ",
"9 A J r F ;.@.o.wXtXrXE s.D.Q.'.~.F.).*XA.^.&X,XW.(.a.v q G S n ",
"9 G J A R -.o.' 6.zXcXwX..t.U.^.W.A.].T.g.`./.5X&Xt.g 7 9 y O.S ",
"u w J t D :.K 5 * 3.wXqXo.S.!./.m.p.H.Z.i.S.,X,X^.a.8 K r H =.#.",
"A 1 D r #.=.b f u.f > > e.F.L.J.m.m F.F.P y.).{._.^ q K A H T H ",
"q K M S t V e ^ j z r.U U.L.k !.M.f ^ 0.X 1 P.J.a.v G J G =.H H ",
"G t T 9 G q j k a 0.L.~ Y.n.m L.P.j D e + . Q e.3 6 @.A H +.S K ",
"9 +.#.Z V u.m.L c p.g.B C.C.N y.P.h j.1.  2 E Q W A H t y +.H @.",
"n y T A f a.l < t.U.k X k R.0.W m.q.l.7.  V %X-Xx.7 A R r G T +.",
"V m S p c - N n.F.m.j c V L.Z.8 ^ y.|.xX0XwXiXjX@X4 A T G A T #.",
"G G ;.t A Z j n.e.n g Y 5 P c.w.5 I =XdXrXuXgXkX#X6 @.y K K F +.",
"D S H r r D 7 8 4 B z h f - ~ e.Z I yXgXhXhXhXlXXX0 $.K A H S S ",
"A A A A A D V 7 x d 8 * = O + X d >.:XlXkXgXgX@X>.S K D G S R K ",
"A A A A A S A 7 y > - f.b.z k.|.p.8.j.z.eXl.t 4 0 9 S b A G K +.",
"A H A t S K r 7 7 7 6 s.E.}.6XpX<Xz.oXt.h..XU z j 9 A b b H H K ",
"A A A r S K A r D - $ ; x <.|.+X4X8XaX6X8XpX4XU d q +.D b S S #.",
"q D A 9 A K r 7 6 $ , 3...) O % ~ k.2. X1XOXL + e $.r q G H K H ",
"7 H H r A A V 6 * ;.' 5.4._ ; ' ` %.) 1.1XN.[ : 4 6 A K y A S J ",
"7 A K 9 r K V 8 d.3XN.k. .# ; ' %.6.%.1.8X X) !  XE V b 8 H A A ",
"r A S 9 r H V C k.9X6X>XN.` ' ) ` [ } XX7X3XoXV.}.|.e G v H =.A ",
"A A S r A K w C w Y |.>XV.Z E b. X#X$X4XsX8X2XN.s.W V J A S H S ",
"r A H t K #.A r y & 6 R m = :.b.2XaXsXaX<XT.d.J i r D H y S S H ",
"A A K K T *.A r t < & ; $ $ $ ; ! 1.,.<.E N t n H c D H S S m G ",
"r S K H *.;.S y H x ; ; > $ > & # @ _ [ ] } T t M v H J S n D H ",
"A S K H *.;.S b D { > : % 4 K n 4 _ ' %.> 0 S Z G r K S y H H H ",
"A G K H *.:.H A u t R 8 4 y S $.D > e T y { G A O.G S H G K H A ",
"S A K H *.:.A A b D +.D S =.M D R m D T R M F p S 9 b #.V m S +."
};
