/* XPM */
static char *b1bb0057047e4c5ce7d9bf566433c49f6YCmu66wVpeuW3tQ[] = {
/* columns rows colors chars-per-pixel */
"32 32 155 2 ",
"   c #0B0C00",
".  c #150E08",
"X  c #1B0C09",
"o  c #161303",
"O  c #131B03",
"+  c #1B1A01",
"@  c #18100E",
"#  c #15180F",
"$  c #1E1B08",
"%  c #140911",
"&  c #1A0C13",
"*  c #161014",
"=  c #1A1414",
"-  c #1B1B11",
";  c #250E06",
":  c #240F0C",
">  c #291200",
",  c #2F1A05",
"<  c #22110A",
"1  c #29120C",
"2  c #231A0B",
"3  c #281F0E",
"4  c #301100",
"5  c #381706",
"6  c #331A04",
"7  c #351C08",
"8  c #231313",
"9  c #2E1113",
"0  c #211D11",
"q  c #331714",
"w  c #391D12",
"e  c #1B2000",
"r  c #1D220B",
"t  c #332407",
"y  c #352806",
"u  c #2A2512",
"i  c #55341E",
"p  c #52381D",
"a  c #403424",
"s  c #433B24",
"d  c #4F3D25",
"f  c #4B352A",
"g  c #443B2D",
"h  c #4E3C2D",
"j  c #533825",
"k  c #5B3B26",
"l  c #53352D",
"z  c #513C2E",
"x  c #462B32",
"c  c #4D3332",
"v  c #443D32",
"b  c #4D3B30",
"n  c #4C3138",
"m  c #473E3D",
"M  c #4B3C3A",
"N  c #523E32",
"B  c #5C3C32",
"V  c #52373E",
"C  c #523C3C",
"Z  c #593D3C",
"A  c #613E32",
"S  c #4A4529",
"D  c #55442C",
"F  c #59432D",
"G  c #464530",
"H  c #4C4333",
"J  c #4F4B35",
"K  c #4C4338",
"L  c #554234",
"P  c #584537",
"I  c #554835",
"U  c #5C4B31",
"Y  c #574339",
"T  c #594639",
"R  c #524B39",
"E  c #5C493B",
"W  c #5E5439",
"Q  c #61472E",
"!  c #604331",
"~  c #63453B",
"^  c #68433D",
"/  c #604C3F",
"(  c #67503E",
")  c #4F3C42",
"_  c #593F40",
"`  c #514545",
"'  c #5C4B42",
"]  c #5C4649",
"[  c #584E4D",
"{  c #585544",
"}  c #634642",
"|  c #624D40",
" . c #655244",
".. c #685547",
"X. c #63524B",
"o. c #695648",
"O. c #DC9D1C",
"+. c #DBA615",
"@. c #D2A71A",
"#. c #DDA81C",
"$. c #E7B202",
"%. c #E2AD1B",
"&. c #EEB412",
"*. c #E9BA12",
"=. c #E4B41A",
"-. c #EAB51E",
";. c #E9BC1B",
":. c #F3BB10",
">. c #FCBE14",
",. c #F9BB1A",
"<. c #DB9F25",
"1. c #F39E31",
"2. c #DEA522",
"3. c #D6AB21",
"4. c #D8AA20",
"5. c #E2A224",
"6. c #E4AA22",
"7. c #ECAF20",
"8. c #E4AC2C",
"9. c #E9AC2E",
"0. c #F2AE25",
"q. c #F5A12D",
"w. c #FAAD29",
"e. c #E7B226",
"r. c #EAB224",
"t. c #EFB820",
"y. c #FCBC26",
"u. c #F4B02B",
"i. c #F8B62E",
"p. c #E2A733",
"a. c #E0AE33",
"s. c #EBB231",
"d. c #F2BD33",
"f. c #F5BA3A",
"g. c #EDC21D",
"h. c #F4C31B",
"j. c #FDC31C",
"k. c #FDC225",
"l. c #F5C12F",
"z. c #FEC32B",
"x. c #FFC82F",
"c. c #FEC635",
"v. c #F6CA35",
"b. c #FFC639",
"n. c #FFBC46",
"m. c #FFBB4A",
"M. c #FBCD42",
"N. c #B9A584",
"B. c #C0A788",
"V. c #FFF0D8",
"C. c #F6FBDD",
"Z. c #FFF8DE",
"A. c #FEF0E3",
"S. c #FBF4E1",
"D. c #F7F9E1",
/* pixels */
"L L P L E  .E P P L L P L L L E L L P L E  .E L T L T E Y T T Y ",
"L L L L E  .E P P h L P L L L E L L P D E  .E L Y N T T C T Z ' ",
"L L T L E  .P P L z P E L P P P L L P L E  .E L N b Y Y L Y Y Y ",
"L L T L E  .P L L L E E L P P P L L L D E  .T L N N Y Y N C ' T ",
"L L L L E  .E L L L E / P P T P D L P L P  .T L N N Y Y N Y ' ' ",
"h L E N E  .P L L L ' E L P E T N L P z E  .T D C N Y Y N Y Y Y ",
"h L E N E  .P L N L E E L L E P z L P N E  .E L L N Y N N C Y Y ",
"h L T N E  .L D I L ( E L L L L L L P D P  .E L N N N N b N Z ' ",
"L L L L E  .E L N T ( ( S } T K K p U J J  .} D Z N Y C N E ' ' ",
"L z P L P ' P L F ^ [ ~ ] h - & 8 = g V ^ ' D I L N Y Y L E ] T ",
"L L E L L T L L G F X.' + 4 8.&.$.8.q o N P A K N N T E Z E T T ",
"L L E L N T D L Y F { 2 O.h.k.v.c.y.-.5.+ g B z Y N Y T L T ] T ",
"L L E I L T L L ] E L , d.y.r.A.A.e.z.-.w ) T H T N T Y N ] T E ",
"L P ( P L E L L ' N r @.>.f.N.n.s.y 2.j.3.o f E Y N L Y N E E ' ",
"L P E P L E L L L g & w.j.m.Z.M.6.> 1.x.0.@ K j Y N Y L C Y ' ] ",
"L L E P L E L b F v < =.h.l.C.c.%.e =.k.e.; a L N N Y T T ~ T T ",
"L L T L L L z L D m @ t.,.c.S.b.6.e %.z.6.1 v L P L E E L P E T ",
"L T L L L L L L U h % u.j.n.V.M.r.> q.j.i.. s F L D P T L P E E ",
"L L L N P E N L b f O #.j.s.N.9.2.y a.j.3.- c N L h L T L P P E ",
"L L L D L E L z Y b K 6 e.z.+.u 3 +.k.r.7 C C T L h P L L L E E ",
"L L L N P E L z C i G $ 5.*.k.%.-.y.g.#.+ K k N L b P L L P E E ",
"L L L z L T N z G j Y C o 5 5.,.:.p.9   Z T A b L D L P L L E E ",
"S L E z L T N z F l ` B x z # * X - z n i R j S N h L L L L L P ",
"N T L L L T N N N N L S S T z G m j F J v P L z L h L L z L L L ",
"N L P z L T z L z h L L L E E P L L T h z L z z L h L P L E L E ",
"N L T z L E N L L h E L L E E E L L T D L E L L L h P L L L L E ",
"N L E L E E L L L h E L L P E E L L E L L E L z L N P P L P P P ",
"L L E T E  .L z L L E E L P E P L L E P E  .P L L z P P L L P P ",
"L P E L /  .L L L D T L L P P E L L E L / o.E L L S P E L E L P ",
"L P E E  . .P L L L T T L P E L L L E E / o.E L Y L E P L L E P ",
"L L E P  .o.E L L L E L L E E E L L E L / o.T L L L E L L E P E ",
"L L E L  .o.L L L L E E L P E E L L E P / o.E L L N P E L L E P "
};
