/* XPM */
static char *ZXhpdC1jbG9zZWQtcmVtb3ZlYmctcHJldmlldyUyODElMjk_[] = {
/* columns rows colors chars-per-pixel */
"32 32 216 2 ",
"   c #6A361B",
".  c #71371F",
"X  c #4C3B2B",
"o  c #47392B",
"O  c #5C3925",
"+  c #5E3728",
"@  c #513D2D",
"#  c #5F3F2A",
"$  c #463C33",
"%  c #4D3D33",
"&  c #4B3D3A",
"*  c #533E33",
"=  c #5B3F34",
"-  c #563E3C",
";  c #633C2B",
":  c #6B3E2D",
">  c #653A23",
",  c #703726",
"<  c #7A3D24",
"1  c #7B3E2A",
"2  c #743B24",
"3  c #54412E",
"4  c #5B422E",
"5  c #4D4134",
"6  c #4C443A",
"7  c #544334",
"8  c #5A4436",
"9  c #554934",
"0  c #5A4A37",
"q  c #54443A",
"w  c #5B453B",
"e  c #55493C",
"r  c #5B493C",
"t  c #7B4327",
"y  c #7C412B",
"u  c #764524",
"i  c #624234",
"p  c #6A4935",
"a  c #614439",
"s  c #624A3E",
"d  c #784A30",
"f  c #774931",
"g  c #675434",
"h  c #77573E",
"j  c #78523B",
"k  c #4E4C46",
"l  c #4A4B46",
"z  c #5B4642",
"x  c #554C42",
"c  c #5C4A41",
"v  c #4D5348",
"b  c #535245",
"n  c #595246",
"m  c #54544B",
"M  c #5B554A",
"N  c #5B594C",
"B  c #475353",
"V  c #585752",
"C  c #545C53",
"Z  c #595C5A",
"A  c #595951",
"S  c #624D42",
"D  c #624F48",
"F  c #654844",
"G  c #645243",
"H  c #645840",
"J  c #625A4D",
"K  c #68564B",
"L  c #715348",
"P  c #765F4F",
"I  c #7C5946",
"U  c #635D53",
"Y  c #605D58",
"T  c #6A5C59",
"R  c #5C635D",
"E  c #59685E",
"W  c #7A6047",
"Q  c #626356",
"!  c #64655B",
"~  c #6B655B",
"^  c #636B5E",
"/  c #6B6A5C",
"(  c #6A6655",
")  c #71665D",
"_  c #726A5E",
"`  c #7C6553",
"'  c #5C6564",
"]  c #5E6A61",
"[  c #636664",
"{  c #646A64",
"}  c #6C6D64",
"|  c #6F6F6D",
" . c #726C62",
".. c #766E65",
"X. c #66726B",
"o. c #6D736C",
"O. c #6A7567",
"+. c #757266",
"@. c #73746D",
"#. c #76796F",
"$. c #7A796E",
"%. c #6E7372",
"&. c #6B7A71",
"*. c #677671",
"=. c #747672",
"-. c #737A73",
";. c #7B7B74",
":. c #7C7E7A",
">. c #747778",
",. c #83432C",
"<. c #89472D",
"1. c #914C2B",
"2. c #895025",
"3. c #93542C",
"4. c #9A562F",
"5. c #834530",
"6. c #8C4D31",
"7. c #8B4732",
"8. c #914E32",
"9. c #895837",
"0. c #8D5234",
"q. c #955333",
"w. c #995231",
"e. c #9B5C33",
"r. c #995C39",
"t. c #975739",
"y. c #A35B34",
"u. c #A85935",
"i. c #B25E3C",
"p. c #9B6136",
"a. c #9D643B",
"s. c #93623B",
"d. c #A36236",
"f. c #AB6436",
"g. c #A0643A",
"h. c #AD653E",
"j. c #A96A3C",
"k. c #A7693A",
"l. c #BA6D37",
"z. c #B5653B",
"x. c #B46C3B",
"c. c #BE6E3C",
"v. c #B66737",
"b. c #AB7038",
"n. c #B5723B",
"m. c #BB743D",
"M. c #BD7A3F",
"N. c #B57F39",
"B. c #CC7D3F",
"V. c #C4783E",
"C. c #D7773B",
"Z. c #A75D40",
"A. c #85624E",
"S. c #996146",
"D. c #AB6942",
"F. c #AA6944",
"G. c #B56C41",
"H. c #BA6842",
"J. c #BA7642",
"K. c #BC7B42",
"L. c #B87649",
"P. c #A9775C",
"I. c #857B76",
"U. c #C56D42",
"Y. c #C47544",
"T. c #C47B44",
"R. c #CB7D45",
"E. c #C47E49",
"W. c #CB7D4B",
"Q. c #C9754A",
"!. c #D07E4C",
"~. c #D27441",
"^. c #D27E50",
"/. c #7B816D",
"(. c #758175",
"). c #7A8276",
"_. c #7B837A",
"`. c #7C8C7B",
"'. c #CA823F",
"]. c #C08239",
"[. c #D3803A",
"{. c #BC805B",
"}. c #B78349",
"|. c #80826D",
" X c #81847A",
".X c #86877F",
"XX c #9E8D79",
"oX c #C48244",
"OX c #CB8244",
"+X c #CF8946",
"@X c #C58249",
"#X c #CC844A",
"$X c #CE894A",
"%X c #D28345",
"&X c #D4844B",
"*X c #DA854C",
"=X c #D48A4C",
"-X c #DD8B4E",
";X c #D68B42",
":X c #D79247",
">X c #D7904E",
",X c #DB914D",
"<X c #CA8555",
"1X c #D18651",
"2X c #DC8551",
"3X c #D48D52",
"4X c #DB8B53",
"5X c #DA9254",
"6X c #E48955",
"7X c #E19058",
"8X c #7D8482",
"9X c #7E8B84",
"0X c #818582",
"qX c #8A8B82",
"wX c #868A81",
"eX c #8F908A",
/* pixels */
"7 7 8 7 r G 7 8 w X 8 8 % T  .~ ~ ~ G @ s s r e 7 7 w w 8 w w - ",
"7 8 8 * r G r w q * 0 8 e ;.wX`.8X).Q 6 s S 8 0 % * w r w q q F ",
"7 7 w 7 r G 0 7 % 8 ; 8 q / _.(.o.^ b $ S L i 3 7 * 8 7 7 q 8 w ",
"7 7 8 7 s G 7 7 9 X 0 G x R ;.;.;.+.b n w G 8 5 % * 8 - * q q - ",
"* 7 7 * s S r N _ e Q @.X.R =.>.;.o.&.:.+.J  .~ & o w w * q w c ",
"* 7 9 7 w S U $.;.{ %.9X(.C =.I.:.[ =.:.=.' qXqX~ 5 - 8 * q q z ",
"X * 0 7 r G U ).;.>.{ / P p h W A.I L ..R _..XqX..q * * % 7 * w ",
"@ w w @ r D m { &._.M p q.u.f.e.c.v.Z.d g (._.@.M $ q * X - * z ",
"* = 7 # r M $.*.' G u p.H.Y.Y.n.3XW.T.l.4.i E =.-.n % w * q w S ",
"* * 8 7 r N ;._.c j e.n.<X#X1XoX5X&X3Xn.L.S.s ).wX~ q 8 w c w 8 ",
"7 4 8 3 e ~ @.+.f F.Y.T.=X-X=XoX7X2X4XK.3XW.t.( o.! c 7 8 r z z ",
"7 7 r % H ;.&.K e.Q.R.'.=X4X&XoX-X%XR.E.$XC.Y.g X.-.~ q 8 w q z ",
"= 3 F 6 N -.X.h x.&XB.+X>X4X#XE.5XOX2XE.$X[.Y.S.{ #./ e 7 8 z z ",
"8 3 F m / %.' 9.#X4X&X$X5X&X%XoX,X=X7XT.=X+XOXx.m o.} A q q c c ",
"7 3 z } |.8X] g.=X=X%X$X>X&X&X@X,X4X4XT.=X=X4Xl.~  X.X_.M q w r ",
"7 9 z >./. XE d.*X*XOX3X$X&X&XM.,X6X4X].,X#X1X'.~ ;.>.:.m z s w ",
"9 * e ~ %.&.R d.&X2XOX<X&X#X#XE.:X2X2XE.;X<XW.%X+.o.| o.k q a e ",
"7 q e 9 l { m p.&X=XT.$X&XOXR.K.=X%X2XJ.;XR.6XOXn ^ A k 6 w w 0 ",
"= * q 5 Z eXX.p.*X=XR.@X!.OXR.K.4XOX*XJ.OXR.~.N.~ `.Q & 5 8 s w ",
"8 w w o x qX] s.*X&XE.#X*XOXR.K.=XT.R.@X$X{.{.}._ -.Q 7 7 8 0 8 ",
"7 = - X M :.R a.&X#XT.oX&XOXR.K.#X!.R.m.m.` XXF.) O.m * 7 9 w 8 ",
"X = q 9 k Y l a.&XR.R.@X*XOX%XJ.$X^.=XM.T.{ *.P.x E m 6 9 7 r s ",
"X w x )  X0X^ d.&XE.Y.E.2X#X#Xm.=X^.&XK.D.' B I J @.:.=.N 7 = 8 ",
"X r 6 _ 8X_.R e.!.T.m.J.2XR.W.x.&XR.'.m.g.Z >.% ( } :.0Xk % i 9 ",
"& 3 8 *.`.I.! s.^.J.j.x.W.R.T.b.R.J.W.j.h.2.1.e./ wX:.(.m q w r ",
"7 8 = ! ^ [ B r.U.z.y.x.Q.U.c.j.V.v.c.d.G.j.j.j.m +.} [ 6 7 s q ",
"* 8 = l v =.R <.i.u.w.h.H.i.z.d.z.u.u.4.y.3.1.3.m $.m $ 7 8 7 F ",
"* 8 8 - m _.[ ,.1.q.<.t.y.y.y.q.Z.q.t.0.8.t t 6.[ _.! - w 7 7 = ",
"7 w s a A _.] : <.,.< 6.7.1.8.6.6.,.7.2 ,.u 1 t N (.^ 7 7 7 9 w ",
"X w 8 8 b } V + 1 2 , 1 ,.,.5.5.5.2 <   2 2 , . N ;./ & 7 w 7 r ",
"9 w 0 s x e & 4 + + ; ; ; i ; ; : O > O : ; O ; $ q x q @ w s 5 ",
"@ z 8 0 n K z 3 9 * r 9 0 0 9 e 7 q w x S J r 7 q q 8 r 7 = 8 c "
};
