/* XPM */
static char *_902f9dca8c44195accc1e2ddd961bd7QbdpIGfVPAuMnCSl[] = {
/* columns rows colors chars-per-pixel */
"32 32 77 1 ",
"  c #4C392B",
". c #4D3A2C",
"X c #4E3B2D",
"o c #4D392E",
"O c #4E3A2F",
"+ c #4F3C2D",
"@ c #4F3C2E",
"# c #503D2E",
"$ c #503D2F",
"% c #513E2F",
"& c #4F3B30",
"* c #503C31",
"= c #513E30",
"- c #523F30",
"; c #523F31",
": c #513D32",
"> c #523E33",
", c #533F34",
"< c #534031",
"1 c #534032",
"2 c #544132",
"3 c #544133",
"4 c #554233",
"5 c #544035",
"6 c #554234",
"7 c #564334",
"8 c #564335",
"9 c #554136",
"0 c #544037",
"q c #564237",
"w c #574435",
"e c #574436",
"r c #584536",
"t c #584537",
"y c #594637",
"u c #574338",
"i c #564239",
"p c #57433A",
"a c #584439",
"s c #594638",
"d c #5A4738",
"f c #5A4739",
"g c #59453A",
"h c #58443B",
"j c #5A463B",
"k c #59453C",
"l c #5B473C",
"z c #5A463D",
"x c #5B473E",
"c c #5B4839",
"v c #5B483A",
"b c #5C493A",
"n c #5C493B",
"m c #5D4A3B",
"M c #5C483D",
"N c #5D4A3C",
"B c #5E4B3C",
"V c #5E4B3D",
"C c #5D493E",
"Z c #5C483F",
"A c #5E4A3F",
"S c #5F4C3E",
"D c #604D3F",
"F c #5D4940",
"G c #5E4A41",
"H c #5F4B42",
"J c #614E40",
"K c #624F41",
"L c #635042",
"P c #645143",
"I c #655244",
"U c #665345",
"Y c #675446",
"T c #685547",
"R c #695648",
"E c #6A5749",
"W c #6B584A",
/* pixels */
"8et1VYftV$ff;88f8tt$STttf;Vx,lpx",
"8ef1VYfteXft3t8V3tw<BTtti*xp,xhf",
"1ef;VYte8 vv8fev4wt<DTte8&p8>lph",
"1ef;nYf88;SV8tef<wy$nEt3,&fi>phx",
";ev;nTf1e3LSevtf<wd<nTt3,Ogq>lpx",
"@ev$nRf131LS8nfv#wd#nEt<p#gq*phx",
"Xen;vRt;13KV1fff#wd#nEd<p#p>*ppx",
"Xev;vTf$88Pv$333#wd#nEd$,Op,#,,p",
"3;f3nRn88eUD8VVKw<yrDYDyx*qq>DxJ",
"31f8fPt18eTKeVvV72y7yD77,#lpqDxF",
"38v38n1;8eRPfVvv72y<>l%%p*xg,x,F",
"38V31v118tRLtVvn72D>%7%,g:lg,FhF",
"3eS83v83ftTK8vvV22D<%w%7F,xF,FxF",
"3eDe8V88tfYS8nnS27D7,q,7x,,,,J,J",
"8eDeeS8;eeYK8VnVw2D27D,,,:k,>FJF",
"88SetS;@38TLfVnVr2Dr,D%:,OJ,,JkF",
"38n$3t$tttTTtttDr7y%3t3tn3Dl3ytn",
"3tv1tn$t33PDtvtnr7y3$t$3t$nt3dyn",
"ttt$tn$33$Sn3ntnq7l%<t$33 tt;nnn",
"38tXtD$3$ tt3ntn77n%$t33t tt$ntn",
"3tt@tD$$3 tt3nnn37l$$d3$e$t83tvn",
"$tt$3D$$3@t3$ntn%7n$$n$$3 tt3nnn",
"$tn$3n1$3$te$38n%7n$#y3#3 tt1ttt",
" tS$3n$$3 n3 33n>3n$#l>#t$t3$333",
"$tt$3n$33@tt3nnn3tt$3n$$3 tt3nvn",
"33t$tn333 nt3nvn3tn$3n$33$vt;ttn",
"$tn;nL3;t$nt3ftn3tn3nD33t$ft3vtt",
"3tntVP33t$nt3ntn$8n3DPt3t$nt;ntt",
"3tSvDTt;t1nv3ntt3tntDTtet1nt3ntt",
"3tntPWt3t3nn3ntn38ntPWt3t$nt3ttv",
"3tntPWt3t$nt3nvn3tntPRt3v$nn3ftv",
"3tntPWt3t1nvennn3tntPWvet$nt3ntn"
};
