/* XPM */
static char *a10d4eaf985a46698ff45950edb52898LTfgY4kzYymTYR51[] = {
/* columns rows colors chars-per-pixel */
"32 32 215 2 ",
"   c #020101",
".  c #0A0402",
"X  c #040609",
"o  c #070B0C",
"O  c #0B090A",
"+  c #080807",
"@  c #100B07",
"#  c #17120E",
"$  c #0A0D14",
"%  c #161616",
"&  c #351B0D",
"*  c #2D1F14",
"=  c #3B1D12",
"-  c #29170D",
";  c #3D220F",
":  c #2C231E",
">  c #3B2315",
",  c #372418",
"<  c #342D28",
"1  c #2C302F",
"2  c #3B3328",
"3  c #2F363C",
"4  c #3C3C3D",
"5  c #3E3935",
"6  c #451E0D",
"7  c #46250F",
"8  c #412412",
"9  c #442916",
"0  c #452919",
"q  c #4E2E1C",
"w  c #512614",
"e  c #532911",
"r  c #46301B",
"t  c #56351D",
"y  c #5B361B",
"u  c #5E3A1D",
"i  c #5C3516",
"p  c #653A15",
"a  c #61391B",
"s  c #693D18",
"d  c #43352C",
"f  c #4C3B2D",
"g  c #493426",
"h  c #523C2E",
"j  c #593F2F",
"k  c #5C3D21",
"l  c #4C3C32",
"z  c #463D34",
"x  c #533E32",
"c  c #5B3E33",
"v  c #543C38",
"b  c #653D2C",
"n  c #643A23",
"m  c #793928",
"M  c #6E441E",
"N  c #70401C",
"B  c #4D402F",
"V  c #54402C",
"C  c #5B422D",
"Z  c #4D4133",
"A  c #4B433A",
"S  c #554235",
"D  c #5A4436",
"F  c #554836",
"G  c #5D4A36",
"H  c #55443A",
"J  c #5A463B",
"K  c #544A3D",
"L  c #5C493C",
"P  c #63412C",
"I  c #694425",
"U  c #714525",
"Y  c #7E4C26",
"T  c #7B422E",
"R  c #7D4C2B",
"E  c #764828",
"W  c #7D5329",
"Q  c #654431",
"!  c #614A3B",
"~  c #614738",
"^  c #745439",
"/  c #774A35",
"(  c #4E4C43",
")  c #4C4D4B",
"_  c #454A45",
"`  c #534642",
"'  c #554C42",
"]  c #5D4C42",
"[  c #5C4945",
"{  c #4E544A",
"}  c #5C5244",
"|  c #555249",
" . c #5B554C",
".. c #5C5A4E",
"X. c #535145",
"o. c #535752",
"O. c #5A5A54",
"+. c #575C5B",
"@. c #5C5D58",
"#. c #634D41",
"$. c #645344",
"%. c #6A5244",
"&. c #61544A",
"*. c #6A554A",
"=. c #645A4C",
"-. c #6B5B4D",
";. c #665F55",
":. c #775846",
">. c #5D6155",
",. c #5D625A",
"<. c #536359",
"1. c #6B634C",
"2. c #636056",
"3. c #6C6255",
"4. c #63655B",
"5. c #69635B",
"6. c #626A5D",
"7. c #736858",
"8. c #6F725F",
"9. c #626662",
"0. c #666C65",
"q. c #6B6C65",
"w. c #6D6F68",
"e. c #686A67",
"r. c #726D63",
"t. c #716D6A",
"y. c #6F7166",
"u. c #6D726C",
"i. c #66776D",
"p. c #747265",
"a. c #73756B",
"s. c #79736B",
"d. c #757C6D",
"f. c #7A7466",
"g. c #6C7A77",
"h. c #6B7276",
"j. c #737572",
"k. c #747B73",
"l. c #7B7C74",
"z. c #7D7F7E",
"x. c #824D25",
"c. c #85442D",
"v. c #8B4B2E",
"b. c #82522A",
"n. c #9A572B",
"m. c #894B32",
"M. c #9C4E36",
"N. c #895531",
"B. c #9C5234",
"V. c #975936",
"C. c #A25E35",
"Z. c #AD5F3B",
"A. c #B55C3A",
"S. c #946134",
"D. c #A36434",
"F. c #AA6135",
"G. c #A3653A",
"H. c #A26B3B",
"J. c #AC6937",
"K. c #B16C36",
"L. c #B5683C",
"P. c #BB6D3F",
"I. c #AC713E",
"U. c #A5703E",
"Y. c #B9753C",
"T. c #BC7A3E",
"R. c #B5733D",
"E. c #C1793E",
"W. c #A26D43",
"Q. c #B66F44",
"!. c #BB6E43",
"~. c #BD7442",
"^. c #BD7B42",
"/. c #B77549",
"(. c #817869",
"). c #807B75",
"_. c #C17344",
"`. c #C47C46",
"'. c #CE7F46",
"]. c #C97649",
"[. c #C57C4A",
"{. c #CA7C4A",
"}. c #D17E4C",
"|. c #D57C50",
" X c #7B8275",
".X c #7D8875",
"XX c #76817B",
"oX c #7C837B",
"OX c #798579",
"+X c #BD8049",
"@X c #838276",
"#X c #84837C",
"$X c #8B8C7E",
"%X c #82887C",
"&X c #C28043",
"*X c #CA8445",
"=X c #C18048",
"-X c #CD8248",
";X c #CB884C",
":X c #D28542",
">X c #D3834B",
",X c #D38A4C",
"<X c #D9894C",
"1X c #CF8850",
"2X c #C78852",
"3X c #D68B52",
"4X c #DB8A53",
"5X c #D98755",
"6X c #E1874B",
"7X c #E28E52",
"8X c #E19154",
"9X c #7B8583",
"0X c #848B83",
"qX c #868B85",
"wX c #8E9082",
/* pixels */
"D S S S L $.L L ~ h D J S L &.[ } L L S ! $.~ D F x D L J J J [ ",
"c S J S L ! D S H l J S K @X%XoX#Xl. .l #.-.F D S x J J S v v H ",
"S F J x J %.L S H Z G J ( j.k..Xu.w.| l L ! L F S l S x v J J ` ",
"c S F x J %.F S f j D L ` 9.#X(.u.r.A F ~ %.S h v x D H x H J J ",
"c H F S ! #.J ' -.f $.p.u.+.k.s.oX0.a.f.=.} 3.' l f L J l S H K ",
"l S D c J $.=.s.l.4. XXXi.<.XX9XOX0.l.j.u.0.qXoX[ l H x c J J J ",
"h S D S L &.5.#Xk.u.u.d.7.! %.3.=.} 2.k.9.oX0X0X;.x S x h H v H ",
"f D J x L } | e.d.oX..:.V.C.N.n y 8 , 2 6.$X@Xf.} d H x f c S ` ",
"c f K c Q } j.6.h.$.E L.E.+X~.n.N k q & % +.4.a.q.l v c x K #.#.",
"x S L c G 5.z. X` ^ H.`.-X2XQ.I.N.t t >     2.qX). .J D F L J v ",
"S V K h G 6.i.y.E Q.^.3X8X&X/.R.W.a y 0 O   < u.p...S K c #.` #.",
"S S L Z $.j.u.1.S.>XE.4X8X^././.H.p i ;   X   ) k.y.} J D D v [ ",
"S C L Z ;.k.u.^ !.'.-X5X;X&X].`.I.s a 9       1 k.l. .H v v [ J ",
"S c L ( 5.j.4.U _.3X3X4X*X&X|.T.H.p i 9       + ,.u.2.' H D ] L ",
"S Q ] y.s.XX4.R {.8X&X3X:X&X4X`.U.M I >   O   + w.oX Xp.[ D J L ",
"A D H  Xl.oX2.Y 5X6X-X;X:X*X=X[.H.p a 8       + t.oXoXa.K ` J ! ",
"D l K r.g. X>.b.<X,X*X>X>XT.[._.H.U P > O     X u.z.j.y.A K L D ",
"S F K ' ) ,.{ Y <X,X+X'.>X`.[.Y.H.t F d       o o.9.{ ( H L D L ",
"S S F x @.wX9.Y <X>X&X'.>XT.`.~.H.f 4 5       X u.l.| Z S G F L ",
"D D F d  .$X,.W :X>X+X>X:XY.`.^.D.Z 3 < + X     u.l...A x S J J ",
"v D S f o.@XO.N.>X>X^.-X>XT.-X~.D.r 4 :       O 0.y.X.S c D L J ",
"x F Z S ( >._ Y >X>X^.>X4XY.[.~.H.; < ,       . o.4.( A l D D $.",
"x S H 7.z.%X,.b.>X>X^.>X>XK.~.!.S.7 ; ,     . X 9.u.j.r.K H S S ",
"g K K s.9Xk.>.x.>X-XR.{.'.K.~.F.W e e >   X   $ e.u.0Xl.z H F V ",
"Z V H g..Xl.O.W '.~.K.].].F.G.B.T w 0 * .       d.OXoXa.( H D J ",
"J j H 0.a.q.) b._.K.F.~.!.D.V.v.E w 6 - . . @ # ,.a.u.2.A J D J ",
"f D V A X.u.@.x.P.F.V.Q.Z.B.v.m n 6 & > d K S l @.w.| z f D D K ",
"v L Q K O.oX6.M A.B.B.M.M.m.T m q 0 g h ` #.L V j.#X .S J G S J ",
"S S C L 2.XX,.U B.c.c.c.T / b b v D L L ! $.S S 0. X..Z S D D L ",
"S ' ~ H } p.o.k T b Q P P ~ K D S S F J #.-.L S 6.d.2.Z c D D c ",
"h K ! J ' ] z r P V J D D F K K S D J J #.$.F S A K K S D L L S ",
"C ` L L L %.] D V Z H #.c F L ! F D J D #.%.J J J f J L S S D K "
};
