/* XPM */
static char *_2a4976553a2479aab18ba7db1c50e44Tg6BF73HJHjPtqUe[] = {
/* columns rows colors chars-per-pixel */
"32 32 198 2 ",
"   c #1E1E2C",
".  c #31192F",
"X  c #241D32",
"o  c #2A1C34",
"O  c #2B1D3B",
"+  c #24202E",
"@  c #29282E",
"#  c #242434",
"$  c #2B2435",
"%  c #272A36",
"&  c #292830",
"*  c #252439",
"=  c #2C233C",
"-  c #242A3B",
";  c #2C2B3C",
":  c #322030",
">  c #3C2535",
",  c #382832",
"<  c #35253B",
"1  c #332B3B",
"2  c #3D2C39",
"3  c #352B36",
"4  c #393337",
"5  c #34313C",
"6  c #3C333C",
"7  c #383E3C",
"8  c #363A3B",
"9  c #432D3D",
"0  c #4B2F3D",
"q  c #532D3A",
"w  c #42353E",
"e  c #4B323E",
"r  c #1F3240",
"t  c #292241",
"y  c #2E2B41",
"u  c #372542",
"i  c #332B41",
"p  c #382842",
"a  c #302948",
"s  c #3B2E4A",
"d  c #3C3644",
"f  c #3D3C41",
"g  c #472643",
"h  c #402840",
"j  c #4A2D45",
"k  c #542D45",
"l  c #433342",
"z  c #493546",
"x  c #443A43",
"c  c #4B3C45",
"v  c #42304A",
"b  c #4B344A",
"n  c #453B4C",
"m  c #4D3B4C",
"M  c #523546",
"N  c #513946",
"B  c #513449",
"V  c #4E3D50",
"C  c #2F4543",
"Z  c #3D444A",
"A  c #344B4B",
"S  c #3C4C4C",
"D  c #3B4743",
"F  c #3B534E",
"G  c #31524B",
"H  c #3E4651",
"J  c #3E4A51",
"K  c #344D52",
"L  c #2E5051",
"P  c #3E5250",
"I  c #3A5159",
"U  c #43444C",
"Y  c #49434C",
"T  c #474A4C",
"R  c #49494C",
"E  c #444247",
"W  c #404757",
"Q  c #494150",
"!  c #464C55",
"~  c #4B4A52",
"^  c #544C54",
"/  c #564E59",
"(  c #5F4F59",
")  c #5D4C54",
"_  c #4F5555",
"`  c #545255",
"'  c #5C5657",
"]  c #5B5955",
"[  c #555559",
"{  c #5B555A",
"}  c #545E5F",
"|  c #5C595C",
" . c #625257",
".. c #625857",
"X. c #62545B",
"o. c #625C5C",
"O. c #69585E",
"+. c #5D5B62",
"@. c #5B5F68",
"#. c #635762",
"$. c #635D62",
"%. c #695C62",
"&. c #615D6A",
"*. c #695F68",
"=. c #735F6A",
"-. c #5D6464",
";. c #576862",
":. c #5F6273",
">. c #646164",
",. c #696667",
"<. c #6D6B66",
"1. c #676668",
"2. c #666F6A",
"3. c #6C6C6D",
"4. c #6F656D",
"5. c #736364",
"6. c #726369",
"7. c #736D6D",
"8. c #6D726F",
"9. c #73726E",
"0. c #78726E",
"q. c #666671",
"w. c #6D6575",
"e. c #656C74",
"r. c #6D6C74",
"t. c #626E7C",
"y. c #726674",
"u. c #746E73",
"i. c #7B6D72",
"p. c #756A7A",
"a. c #7B6C7B",
"s. c #746278",
"d. c #667071",
"f. c #6D7372",
"g. c #6D7973",
"h. c #6D7E78",
"j. c #68747B",
"k. c #747474",
"l. c #7A7474",
"z. c #747975",
"x. c #7A7976",
"c. c #757579",
"v. c #7B757A",
"b. c #757B7A",
"n. c #7B7A7B",
"m. c #857777",
"M. c #80767B",
"N. c #827C7D",
"B. c #89787E",
"V. c #79827F",
"C. c #84817C",
"Z. c #6D7985",
"A. c #727583",
"S. c #7D7382",
"D. c #7C7C82",
"F. c #787A89",
"G. c #817683",
"H. c #837C83",
"J. c #897B85",
"K. c #857B8A",
"L. c #8B7D8B",
"P. c #907A86",
"I. c #917E8C",
"U. c #8A7E91",
"Y. c #7B8282",
"T. c #7E808D",
"R. c #7A8888",
"E. c #848286",
"W. c #85848B",
"Q. c #8B838C",
"!. c #8B898E",
"~. c #8A8486",
"^. c #92828D",
"/. c #968B8F",
"(. c #98848D",
"). c #868690",
"_. c #8D8492",
"`. c #848D93",
"'. c #8B8A94",
"]. c #878E98",
"[. c #8F8898",
"{. c #918593",
"}. c #928A94",
"|. c #938698",
" X c #988599",
".X c #938E9D",
"XX c #8D9296",
"oX c #839098",
"OX c #879799",
"+X c #9C9A9F",
"@X c #8D9CA1",
"#X c #969AA5",
"$X c #999CA5",
"%X c #9B9EAA",
"&X c #9593A0",
"*X c #A099A9",
"=X c #94A2A9",
"-X c #99A4AC",
/* pixels */
"!.}.y.1 T.-X'.'.}.^.!.^.^.v.% S.-X].).}.}.}.[.[./.v.$ A.-X`.'.(.",
"i.V.S.z -XD.a.b.u.c.c.c.D.K.m #XY.z.x.l.l.l.l.v.k.Q.V .XY.c.c.v.",
"l.z.4.c XXc.i.z.n.c.n.n.b.y.l `.k.k.k.l.0.x.x.l.k.k.l L.S.n.b.c.",
"z.0.{ T Q.n.n.0.z.3.z.k.6.$.U {.b.z.n.k.k.v.c.c.l.{ Y H.E.k.k.z.",
"z.i.$.~ }.u.z.v.x.x.z.0.=.o.T ^.v.k.b.A.z.c.c.b.l.o.f E.x.x.l.9.",
"z.k.^ 2 }.E.v.u.r.k.7.<.9.) j ).N.k.z.z.z.b.k.9.m.$.f W.Y.7.n.N.",
"' ^ 2 $ w.K.r.` | [ { ` ` 2 . :.B.i.7.>.+.1.O. .^ 1   &.L.a.u.q.",
"! 9 1 - p n A 3 + ; ! T z ; - s j b n < X 1 j b W y y p b l + * ",
"$X'._.[.Q.|.|.y.i Z.=X_. XL.[.L.v.H.{.p.; A.$X!.{.U.'.Q.{.G.1 q.",
"z.n.k.l.M.l.n.N.c $XY.z.c.H.u.5.>.v.M.{.n ].W.n.n.n.k.x.N.~.x *.",
"z.9.9.x.9.9.z.<.N ~.z.g.z.7.<.C.z.x.l.7.z Q.c.z.k.k.k.x.7.l.c 3.",
"c.f.n.n.k.n.x.' H {.v.k.v.#.Q.R.z.3.x.o.c Q.H.c.b.f.b.c.c.>.x r.",
"c.n.c.k.c.c.3.' I ).v.n.c.v.v.d.b.k.k.o.z ~.N.8.x.k.n.3.N.1.E d.",
"M.k.9.z.x.x.l.' S XXk.x.z.v.M.M.i.k.l.{ h L.H.>.9.x.z.0.l.] 8 g.",
"E.7.,.1.{ | ( , $ r.~.7.7.3.[ (  .o.+.; < s.Q.k.| ] [ #.{ 6 & -.",
"n Y d $ $ 1 v < t y z k j 1 * * e w U y = p d R I - O X b u O a ",
"I.^.E.q.% F.#X).U.Q.Q.Q.L.y.$ A.$X[.)._.Q.Q.Q.Q.W.c.; q.$X).Q.I.",
"v.v.H.L.n *XF.b.H.v.n.n.L.H.U &XD.c.b.S.n.N.v.n.H.{.n [.'.z.n.G.",
"c.k.M.=.m }.c.z.l.k.9.9.l.i.x {.n.k.c.l.k.l.0.k.i.v.2 {.S.c.c.z.",
"8.x.l.' z {.l.l.v.k.z.z.x.>.w _.z.k.n.z.z.n.c.c.9.$.z H.n.k.c.z.",
"9.x.9.` T }.n.9.z.z.g.k.k.o.x _.l.k.c.k.z.k.c.c.g.| Y W.N.k.z.k.",
"n.z.V._ ~ '.c.M.v.c.z.z.k.#.n _.n.c.n.n.c.c.k.l.z.-.x Q.H.9.x.l.",
"7.l.9.o.x '.c.x.k.z.k.k.v.| Q ).N.c.c.c.k.x.l.x.9.| x H.H.1.9.l.",
"o.o. .> > a.!.8...o.o.o.' 4 @ j.Q.k.7.<.>.o.] o.O.w : w.Q.l.$.#.",
"9 k j   # g j y O - K J p < * i Z z B y * = L A 6 $ # - W n d < ",
"I.J.U.r.W.K.K.@.# Z.OX'.L.K.G.L.E.P.K.q.* j.OXQ.P.J.K.K.L.J.J.J.",
"v.n.n.4.c.b.Q.H.m OX`.M.v.K.J.n.E.l.Y.(.m ].XXv.M.G.H.S.N.M.N.H.",
"z.k.k.7.<.z.x.6.m ~.l.l.k.g.v.g.f.k.k.i.N W.D.k.z.c.z.c.l.z.z.f.",
"z.k.x.9.c.9.l...~ {.v.x.x.9.z.z.v.n.x.;.Z L.v.M.k.z.z.n.k.0.z.z.",
"c.x.l.z.k.l.M.o.K {.n.2.x.n.0.M.l.f.i.} J {.H.f.0.v.k.x.l.0.M.v.",
"i.g.;.3.%.*.{ 5 r S.Q.c.b.f.>.<.X.-.*.l * a.Q.h.k.g.>.r.,.*.$.#.",
"N A G c 0 6 E + X < M x A P Z F q 4 Z o X ; z T S P C F D 8 5 d "
};
